<svg xmlns="http://www.w3.org/2000/svg" viewBox="0 0 267.91 269.21"><defs><style>.cls-1{fill:#fff;}</style></defs><g id="Layer_2" data-name="Layer 2"><g id="Layer_1-2" data-name="Layer 1"><path class="cls-1" d="M15.15,157.55a4.5,4.5,0,0,1-1.87-.06,4.27,4.27,0,0,1-1.57-.73,4.57,4.57,0,0,1-1.15-1.28,4.74,4.74,0,0,1-.61-1.7A5.06,5.06,0,0,1,10,152a4,4,0,0,1,.67-1.56,4.31,4.31,0,0,1,1.26-1.18,4.86,4.86,0,0,1,1.82-.65,4.82,4.82,0,0,1,1.94,0,4.27,4.27,0,0,1,1.57.73,4,4,0,0,1,1.11,1.27,5,5,0,0,1,.58,1.69,5.18,5.18,0,0,1,0,1.8,3.92,3.92,0,0,1-.66,1.57A4.23,4.23,0,0,1,17,156.9,4.8,4.8,0,0,1,15.15,157.55Z"/><path class="cls-1" d="M26.56,102.49l-1.31,7.82-.93-.16a10.63,10.63,0,0,1-.21-1.34c-.05-.44-.09-.9-.12-1.36L9.69,105,6,104.29l0,.25,3.23,1.63,15.2,9.26-.14.82L6.9,119.71,3,120.22l0,.29,4,.65,14.3,2.4c.15-.38.33-.77.52-1.15s.41-.76.65-1.13l.92.15-1.12,6.65-.92-.16c-.1-.43-.18-.87-.25-1.33a12.83,12.83,0,0,1-.11-1.38L2.15,122a9.54,9.54,0,0,1-.55,1.27c-.21.41-.44.81-.68,1.21L0,124.36l1.1-6.51,15.45-3.09,3.46-.53v0l-3.15-1.64L3.36,104.4l1-5.69.92.16c.1.41.19.83.26,1.25a11.22,11.22,0,0,1,.13,1.3l18.88,3.17q.24-.65.51-1.2a8.63,8.63,0,0,1,.62-1.06Z"/><path class="cls-1" d="M32.08,89.26l-3,7.67-.87-.34a9.18,9.18,0,0,1,.23-2.68l-17.79-7A8.93,8.93,0,0,1,9.83,88c-.28.35-.58.7-.9,1l-.87-.34,3-7.68.87.35a12.16,12.16,0,0,1,0,1.34c0,.47-.1.92-.17,1.35l17.78,7c.25-.39.51-.77.8-1.14a7,7,0,0,1,.87-1Z"/><path class="cls-1" d="M38.13,66.34l.44-.72c.57.23,1.26.54,2.09.95A18.85,18.85,0,0,1,43,67.91a4,4,0,0,1-.07,1.32,12,12,0,0,1-.41,1.43,13.88,13.88,0,0,1-.62,1.44c-.24.47-.48.9-.73,1.3A15.68,15.68,0,0,1,38,77.16a9.26,9.26,0,0,1-3.68,2,9.45,9.45,0,0,1-4.27,0,15.76,15.76,0,0,1-4.88-2.08,14.58,14.58,0,0,1-4.11-3.56,9.82,9.82,0,0,1-1.84-3.89,9.2,9.2,0,0,1,.07-4,13,13,0,0,1,1.62-3.85A19.72,19.72,0,0,1,23,58.83a9.9,9.9,0,0,1,2-1.73c.3.18.63.4,1,.66s.78.54,1.19.85.82.62,1.21.93.74.61,1.05.88l-.44.71-4.83-1a3.32,3.32,0,0,0-.84.87c-.32.44-.62.89-.9,1.34a7.89,7.89,0,0,0-1.09,2.9,6.71,6.71,0,0,0,.25,3.1,9.14,9.14,0,0,0,1.76,3.1,13.49,13.49,0,0,0,3.44,2.88A13.77,13.77,0,0,0,30.68,76a9,9,0,0,0,3.57.23A7.19,7.19,0,0,0,37.35,75a8.59,8.59,0,0,0,2.46-2.67,7.76,7.76,0,0,0,.79-1.59,1.87,1.87,0,0,0,.14-1Z"/><path class="cls-1" d="M53.06,57.5l-5.74,5.8-.66-.66A13.79,13.79,0,0,1,48,60.22L34.38,46.77A8.59,8.59,0,0,1,32,48.09l-.67-.66L37,41.63l.66.66a5.76,5.76,0,0,1-.47,1.16,9.6,9.6,0,0,1-.65,1.12l6,5.92,7.12-7.19-6-5.92c-.4.25-.78.47-1.15.66a10.15,10.15,0,0,1-1.13.49l-.66-.65,5.73-5.8.67.66A5.43,5.43,0,0,1,46.6,34c-.24.42-.49.81-.75,1.19L59.44,48.63c.41-.29.82-.55,1.22-.78a7.42,7.42,0,0,1,1.19-.56l.66.66-5.74,5.8-.66-.66a11.45,11.45,0,0,1,1.15-2.26l-6.41-6.35-7.12,7.19L50.14,58a11.83,11.83,0,0,1,1.12-.67,8.72,8.72,0,0,1,1.13-.51Z"/><path class="cls-1" d="M67.41,17.61c.45.74.88,1.48,1.31,2.24s.83,1.55,1.22,2.34l-.71.46-3-2.27-5.91,3.8,4.63,7.19,4.41-2.85-.23-2.68.68-.44a55.16,55.16,0,0,1,3.52,5.48l-.68.43-2.38-1.38-4.42,2.85,4.87,7.56,6.23-4-.76-4.11.68-.44c.61.68,1.2,1.39,1.75,2.13a24.86,24.86,0,0,1,1.54,2.34l-13.36,8.6-.5-.78A10.47,10.47,0,0,1,68.07,42L57.73,25.91a11.65,11.65,0,0,1-1.3.43,13.38,13.38,0,0,1-1.36.32l-.51-.78Z"/><path class="cls-1" d="M77.63,12.37l8.21-3.24.35.87c-.41.37-.83.71-1.26,1a10.53,10.53,0,0,1-1.32.85l7,17.81L97.53,27l-.14-5.52.78-.31c.23.39.48.86.74,1.39s.53,1.08.8,1.66.5,1.15.72,1.71.41,1.06.57,1.51L85.92,33.36l-.35-.87a8.2,8.2,0,0,1,1.13-1q.54-.39,1-.69L80.73,13a12.36,12.36,0,0,1-1.45.21,9.61,9.61,0,0,1-1.31,0Z"/><path class="cls-1" d="M101.55,3.86l8.68-1.62.17.92a15.4,15.4,0,0,1-1.43.78,12,12,0,0,1-1.46.58L111,23.34,118.3,22l.92-5.44.82-.16c.15.43.3.93.47,1.51s.31,1.16.46,1.78.28,1.22.39,1.81.19,1.12.26,1.59l-15.94,3-.17-.92a8.33,8.33,0,0,1,1.3-.76,11.94,11.94,0,0,1,1.16-.48l-3.5-18.79A13.74,13.74,0,0,1,103,5a10.63,10.63,0,0,1-1.29-.24Z"/><path class="cls-1" d="M142.26.25c0,.86-.08,1.72-.15,2.59s-.16,1.74-.29,2.62H141l-1.27-3.57-7-.11-.14,8.54,5.25.08L139.11,8h.8a54.65,54.65,0,0,1-.1,6.51H139l-1.22-2.47L132.53,12l-.15,9,7.42.12,1.64-3.85.8,0c.14.9.23,1.82.28,2.74a24,24,0,0,1,0,2.81l-15.89-.26,0-.94a10.82,10.82,0,0,1,2.65-.73l.31-19.11a11.15,11.15,0,0,1-1.31-.36c-.45-.14-.89-.31-1.32-.48L127,0Z"/><path class="cls-1" d="M180.57,32.57l-1.21-1.64a14.75,14.75,0,0,1-1.47-2.52,7.57,7.57,0,0,1-1.48.74,8,8,0,0,1-1.87.46,9.41,9.41,0,0,1-2.19,0A9.73,9.73,0,0,1,170,29a8.58,8.58,0,0,1-2.72-1.56,7.17,7.17,0,0,1-1.72-2.11,6.32,6.32,0,0,1-.71-2.4,5.38,5.38,0,0,1,.32-2.39,6.77,6.77,0,0,1,1.53-2.47,9.63,9.63,0,0,1,2.08-1.61,10.8,10.8,0,0,1,2.13-.92c.69-.22,1.27-.38,1.73-.51a10,10,0,0,1-.64-2.82,6.13,6.13,0,0,1,.3-2.64,4.16,4.16,0,0,1,.85-1.38,4.06,4.06,0,0,1,1.38-1,4.79,4.79,0,0,1,1.78-.37,5.47,5.47,0,0,1,2.08.38,5.79,5.79,0,0,1,2.9,2.05,3.07,3.07,0,0,1,.3,2.95,5.29,5.29,0,0,1-1,1.73A7.33,7.33,0,0,1,179,15.25a9.61,9.61,0,0,1-1.72.88c-.6.23-1.18.44-1.75.62A41,41,0,0,0,177.24,21c.68,1.49,1.43,3,2.23,4.54a6.59,6.59,0,0,0,1-.9A14.61,14.61,0,0,0,181.86,23a18.08,18.08,0,0,0,1.37-2.12,11.9,11.9,0,0,0,1-2.45,5.65,5.65,0,0,1-1.51-1.39l.29-.79,6.13,2.28-.29.79a5.94,5.94,0,0,1-2.26,0,29.12,29.12,0,0,1-1.9,3c-.64.86-1.25,1.6-1.82,2.23s-1.1,1.14-1.56,1.55-.82.71-1.07.89c.54.91,1.07,1.77,1.61,2.57a30.58,30.58,0,0,0,1.87,2.5l1.4,1.35-.28.75Zm-3.36-5.48c-.41-.77-.83-1.65-1.27-2.65s-.85-2-1.23-3-.73-2-1-2.89-.53-1.66-.68-2.25A9.76,9.76,0,0,0,170.17,18a6.72,6.72,0,0,0-1.63,2.57,6.38,6.38,0,0,0-.41,2.27,5.62,5.62,0,0,0,.42,2.1,5,5,0,0,0,1.19,1.73,5.58,5.58,0,0,0,1.88,1.17,5.92,5.92,0,0,0,2.79.32A6.48,6.48,0,0,0,177.21,27.09Zm-2.66-16.75a3.86,3.86,0,0,0-.21,1.23,6.91,6.91,0,0,0,.11,1.42,14.43,14.43,0,0,0,.32,1.45q.19.72.42,1.32a8.14,8.14,0,0,0,2.54-1.43,4.92,4.92,0,0,0,1.57-2.61,2.89,2.89,0,0,0,0-1.84,2.3,2.3,0,0,0-1.48-1.3,2.66,2.66,0,0,0-1.19-.18,2.07,2.07,0,0,0-.93.33,2.55,2.55,0,0,0-.69.7A4.57,4.57,0,0,0,174.55,10.34Z"/><path class="cls-1" d="M204.52,45.68c.31.4.59.8.86,1.18a9.66,9.66,0,0,1,.72,1.19l-.61.71-6.44-5.51.61-.71a7.6,7.6,0,0,1,1.35.51c.39.2.78.4,1.16.62l12.44-14.52a12.39,12.39,0,0,1-.89-1.24c-.23-.39-.43-.75-.6-1.09l.61-.71L215.89,28c.65.56,1.39,1.14,2.23,1.74s1.61,1.21,2.35,1.84a12.47,12.47,0,0,1,2,2.19,6.5,6.5,0,0,1,1.06,2.41,5.22,5.22,0,0,1-.08,2.51A6.76,6.76,0,0,1,222,41.2a6.06,6.06,0,0,1-3.48,2.15,7,7,0,0,1-4-.51c-.24,1.71-.45,3.44-.62,5.19s-.3,3.52-.39,5.31l.72,1.85-.52.62-3-2.56-.34-1.48c0-1,.09-1.88.18-2.74s.22-1.73.38-2.57.33-1.68.55-2.5.45-1.69.71-2.59l-2.31-2Zm14.31-13.33q-.59-.51-1-.81a4.86,4.86,0,0,0-.78-.5l-6.23,7.27,1.77,1.51a4.53,4.53,0,0,0,3.59,1.23,5.3,5.3,0,0,0,3.41-2,4.25,4.25,0,0,0,1.22-3.56A5.51,5.51,0,0,0,218.83,32.35Z"/><path class="cls-1" d="M220.71,64.23l-4.29-5.73.75-.56a12.37,12.37,0,0,1,2,1.4l21.89-6.2.56.75L229.51,73.14c.19.4.37.8.53,1.2a4.47,4.47,0,0,1,.32,1.23l-.75.56-5-6.66.75-.56a12.36,12.36,0,0,1,1.15.79c.37.28.72.57,1.05.86L231,65.28l-4.6-6.13-6,1.84a11.69,11.69,0,0,1,1.05,2.68Zm7.42-5.57L232,63.84l4-6.12,1.86-2.15,0,0L235,56.58Z"/><path class="cls-1" d="M251.77,70.52l3.65,7.33-.83.42c-.33-.27-.65-.56-1-.86a10.15,10.15,0,0,1-.87-1l-16.15,8a11.19,11.19,0,0,1-3.55,1.19,7.18,7.18,0,0,1-2.66-.1,5,5,0,0,1-1.89-.86,6.71,6.71,0,0,1-1.21-1.14l.27-.53a6.25,6.25,0,0,0,1.25.37,5.31,5.31,0,0,0,1.51,0,9.29,9.29,0,0,0,2-.46,21,21,0,0,0,2.61-1.12l16.47-8.21c-.11-.47-.21-.93-.3-1.39a11.05,11.05,0,0,1-.15-1.33Z"/><path class="cls-1" d="M240.61,102.07,238,94.25l.89-.3a9.57,9.57,0,0,1,1.56,2.2L258.51,90a11.39,11.39,0,0,1-.1-1.33c0-.45,0-.91,0-1.37l.89-.3L262,94.83l-.89.3a10,10,0,0,1-.84-1c-.28-.39-.53-.77-.75-1.15l-18.1,6.14c.06.45.1.91.13,1.38a7.94,7.94,0,0,1,0,1.31Z"/><path class="cls-1" d="M265.54,121.26c0-.53.09-1,.16-1.49s.16-.93.24-1.37l.93-.14,1,7.18-.93.14a8.59,8.59,0,0,1-1.13-2.19l-21.65-4.22-.63-1.7,19.81-11.17c0-.44.1-.88.18-1.3s.17-.84.26-1.24l.93-.14,1.22,8.46-.92.13c-.2-.34-.41-.72-.61-1.15s-.39-.88-.57-1.35l-13.79,7.56-2.45,1v.07l2.71.26Z"/><path class="cls-1" d="M254.51,147.44a4.79,4.79,0,0,1,1.76.62,4.37,4.37,0,0,1,1.28,1.17,4.46,4.46,0,0,1,.71,1.58,4.72,4.72,0,0,1,.07,1.8,5,5,0,0,1-.56,1.69,4.15,4.15,0,0,1-1.1,1.29,4.5,4.5,0,0,1-1.56.74,4.8,4.8,0,0,1-1.94.07,4.73,4.73,0,0,1-1.83-.63,4.46,4.46,0,0,1-1.27-1.17,3.93,3.93,0,0,1-.68-1.55,4.82,4.82,0,0,1,0-1.78,4.93,4.93,0,0,1,.57-1.71,4,4,0,0,1,1.1-1.3,4.34,4.34,0,0,1,1.56-.75A5,5,0,0,1,254.51,147.44Z"/><path class="cls-1" d="M189.28,143.84v37.57c-3,.81-5.63.38-8.23.46s-5.26,0-8.22,0c-.81-3.61-.31-7-.4-10.4s0-6.62,0-9.92V140.93l-4.17-.34c-.15,1.23-.21,2.24-.42,3.23a3.68,3.68,0,0,1-7.24.17c-.45-2.21.23-3.75,2.19-4.51a11.74,11.74,0,0,1,3.09-.58c1-.1,2.11-.05,3.17-.08s1.83-.08,2.93-.14c.89-3,.45-6,.4-9-.08-4.48-.41-9-.71-13.43a41.22,41.22,0,0,0-.68-4.68c-.69-3.74-2.54-6.62-6.12-8.23a12.8,12.8,0,0,1-1.62-1.06,13.89,13.89,0,0,1,8.07-1.44c5,.42,9.82,1.41,13,5.75a20.61,20.61,0,0,1,3.34,6.63,49.72,49.72,0,0,1,1.58,10.51c.25,5.8.07,11.63.07,17.09,3.74,2.58,7.41,4.68,10.59,7.38a36.29,36.29,0,0,1,13.32,26.43c.43,7.27-.54,14.28-4.07,20.72-7.26,13.23-18.33,20.3-33.59,20.83a38,38,0,0,1-26.62-9.39,45.32,45.32,0,0,1-6.51-7.42c-8.14-10.74-16.17-21.55-24.25-32.33a10,10,0,0,0-1.12-1c-.5,1-1,1.86-1.37,2.76a21.89,21.89,0,0,1-23.07,13.09c-7.59-1-14.2-8.34-14.69-16-.42-6.57,1.52-12.07,6.75-16,4.63-3.54,10-4.65,16.19-3.19.23-4.05.08-8,.11-11.87s0-7.94,0-11.91V110.75c1.31-.16,2.31-.35,3.32-.41a12.56,12.56,0,0,0,11.78-13c-.11-5.56-5.29-11.79-12.2-11.61-5.33.14-8.88,2.15-11,6.92l2,.09c3.71.2,6.21,2.64,6,5.89A5.74,5.74,0,0,1,94.62,104c-3.58-.44-5.59-2.78-5.29-6.68.44-5.65,3.35-10.09,8.72-12.28a14,14,0,0,1,19.8,13.43c-.09,8.86-.06,17.73-.06,26.6,0,11.64,0,23.29,0,34.93a9,9,0,0,0,1.88,5.85c8.39,11,16.65,22.18,25,33.21,8.59,11.31,20.11,16.57,34.18,15.11,11.74-1.21,20.89-7.32,27-17.4,8.44-13.89,7.31-27.71-1.6-40.95a31.15,31.15,0,0,0-15-12M100.94,149c-7.44-2.09-13.85-.14-18,5.53a14.94,14.94,0,0,0-1.71,16,15.86,15.86,0,0,0,13.11,9.5c4.62.59,6.59-1.35,6.64-6.05s0-9.23,0-13.85Z"/><path class="cls-1" d="M127.49,101.32c3.33-.51,5.72-1.17,8.11-1.19,9.87-.11,17.12,6.48,17.94,16.32.44,5.25.71,10.52.74,15.79.1,14.93,0,29.86,0,44.79v4.14c-3.32.86-12.35,1-17,.25a36.8,36.8,0,0,1-.48-4.36c0-16.25,0-32.51,0-48.76,0-4.1,0-8.2-.15-12.29a26.25,26.25,0,0,0-1-6.61,9.35,9.35,0,0,0-4.8-6c-.89-.42-1.69-1-3.37-2.06"/><path class="cls-1" d="M89.42,93.74a23.42,23.42,0,0,0-4.78,12.12c-.53,6-.35,12-.61,17.94-.19,4.4-.08,8.91-1,13.17-1.65,7.52-10,13.42-17.59,13V87.6h18.5V98.39l.45.14c.82-1.48,1.55-3,2.48-4.43,3.07-4.65,7.1-7.7,13-7.53a10.18,10.18,0,1,1-10.41,9.62c0-.61,0-1.23,0-2.45"/><path class="cls-1" d="M27.21,216.71l-4-5.63.64-.45a15.83,15.83,0,0,1,1.95,1.63l3.06-2.17-4.74-6.66.5-.36,16.55.35.41.58-10.19,7.25,2,2.77-1.14.81-2-2.77-3,2.17a10.92,10.92,0,0,1,.65,2Zm8.38-11.42,1.74-.87,0-.07-2.18.27-7.65-.09-1.34-.36,1.25,1.44L30,209.28Z"/><path class="cls-1" d="M44.52,223.63,50,228.8,48.88,230l-5.5-5.17Z"/><path class="cls-1" d="M71.27,247.36a6,6,0,0,1-1.59,1.74,5.88,5.88,0,0,1-2,1,5.75,5.75,0,0,1-2.27.1,6.33,6.33,0,0,1-2.32-.89,6.4,6.4,0,0,1-2-1.85,5.47,5.47,0,0,1-.88-2.27,6.18,6.18,0,0,1,.17-2.51,9.09,9.09,0,0,1,1.14-2.6,12.53,12.53,0,0,1,3.15-3.49,13.27,13.27,0,0,1,3.84-2,12.61,12.61,0,0,1,4.11-.61,12.48,12.48,0,0,1,3.94.68l-.17.84a11.68,11.68,0,0,0-3-.25,11.28,11.28,0,0,0-5.83,1.89,9.79,9.79,0,0,0-2.37,2.23,3.93,3.93,0,0,1,2-.32,5.28,5.28,0,0,1,2.48.84,6,6,0,0,1,1.62,1.45,4.53,4.53,0,0,1,.86,1.8,5,5,0,0,1,0,2A6.29,6.29,0,0,1,71.27,247.36ZM69,246.2a5.07,5.07,0,0,0,.87-3.14,3.1,3.1,0,0,0-1.56-2.4,3.66,3.66,0,0,0-2.16-.6,3.76,3.76,0,0,0-1.83.53,7.49,7.49,0,0,0-.51.73c-.19.29-.33.52-.43.68a7,7,0,0,0-.74,1.62,5.82,5.82,0,0,0-.29,1.78,4.1,4.1,0,0,0,.35,1.67,2.83,2.83,0,0,0,1.14,1.29,2.66,2.66,0,0,0,1.46.44,3.06,3.06,0,0,0,1.4-.35,4.81,4.81,0,0,0,1.26-.94A6.89,6.89,0,0,0,69,246.2Z"/><path class="cls-1" d="M104.48,266.28l-6.29-1.95.23-.74a10.73,10.73,0,0,1,1.13,0l1.13.06,3.57-11.52,1-3-.2-.06-1.7,2.47-9.31,11.5-.67-.2-.92-14.68V244.9l-.23-.08-1,3.26L87.71,259.6c.3.17.6.35.89.55s.58.43.86.66l-.23.75-5.35-1.66.23-.74a10.55,10.55,0,0,1,1.13-.06,10.88,10.88,0,0,1,1.14.06L91.08,244a9.89,9.89,0,0,1-1-.6c-.31-.22-.62-.45-.92-.69l.23-.74,5.25,1.62.82,13.08.06,2.9h0l1.7-2.42L105.48,247l4.58,1.42-.23.74c-.35,0-.7.07-1.06.08a7.8,7.8,0,0,1-1.08,0L103,264.36c.33.18.64.36.93.55a6.16,6.16,0,0,1,.8.63Z"/><path class="cls-1" d="M121.88,265.12c0,.39-.09.73-.1,1s0,.59-.06.91l1.8.5-.07.56a9.57,9.57,0,0,1-1.56.42,12.14,12.14,0,0,1-1.6.21l-.67-.09a4.43,4.43,0,0,1-.15-1.38c0-.49.07-1,.13-1.62l-.13,0a3.82,3.82,0,0,1-.55,1,3.63,3.63,0,0,1-.92.87,4.15,4.15,0,0,1-1.25.54,4.1,4.1,0,0,1-1.54.08,3.71,3.71,0,0,1-2.53-1.32,3.46,3.46,0,0,1-.69-2.71,3.75,3.75,0,0,1,.74-1.94,3.4,3.4,0,0,1,1.61-1.06,8.54,8.54,0,0,1,2.45-.35c.95,0,2,0,3.3.11a14.91,14.91,0,0,0,.33-2.05,5.17,5.17,0,0,0-.09-1.61,2.25,2.25,0,0,0-.62-1.1,2.17,2.17,0,0,0-1.24-.52c-.25,0-.53-.06-.85-.07a3.4,3.4,0,0,0-.94.11l-1.65,3-.69-.08c-.11-.56-.2-1.13-.26-1.71a9.82,9.82,0,0,1,0-1.71,9.19,9.19,0,0,1,2.37-.67,10.41,10.41,0,0,1,2.79,0,5.35,5.35,0,0,1,2.12.66,3.14,3.14,0,0,1,1.11,1.16,3.3,3.3,0,0,1,.38,1.42,8.44,8.44,0,0,1,0,1.51c-.14,1.06-.29,2.08-.46,3.06S122,264.22,121.88,265.12Zm-5.4,1.5a2.5,2.5,0,0,0,1.2-.11,3.48,3.48,0,0,0,.93-.53,3.79,3.79,0,0,0,.65-.69,3.24,3.24,0,0,0,.38-.62l.35-2.79a16.81,16.81,0,0,0-2.54-.16,4.5,4.5,0,0,0-1.61.31,1.91,1.91,0,0,0-.88.77,3.29,3.29,0,0,0-.36,1.16,2.48,2.48,0,0,0,.36,1.84A2.09,2.09,0,0,0,116.48,266.62Z"/><path class="cls-1" d="M135.52,257.82a2.88,2.88,0,0,0-.75.64,4.7,4.7,0,0,0-.82,1.45l-.12,7.95a6.66,6.66,0,0,1,1.06.22,5.48,5.48,0,0,1,1.07.46v.67l-6.33-.1,0-.67a4.88,4.88,0,0,1,.91-.39l.86-.23.17-10.52-1.76-.25v-.69a12.33,12.33,0,0,1,1.78-.58c.61-.14,1.19-.25,1.75-.33H134L134,258.3h.11a4.62,4.62,0,0,1,.7-1.06,5.84,5.84,0,0,1,1-.95,4.31,4.31,0,0,1,1.27-.63,3.21,3.21,0,0,1,1.41-.13,5.39,5.39,0,0,1,.32.77c.1.28.18.57.27.88v.69Z"/><path class="cls-1" d="M154.57,265.88a3.89,3.89,0,0,1-1.38,1.73,4.89,4.89,0,0,1-2.45.9,6.75,6.75,0,0,1-2.78-.19,5.1,5.1,0,0,1-2.09-1.19,6.19,6.19,0,0,1-1.4-2.08,10.05,10.05,0,0,1-.71-2.82,7.41,7.41,0,0,1,1.08-5.36,5.83,5.83,0,0,1,4.3-2.3,10.36,10.36,0,0,1,2.35,0,7.14,7.14,0,0,1,1.81.4c0,.59,0,1.26-.07,2a8.43,8.43,0,0,1-.33,1.87l-.72.08-1.47-3a1.2,1.2,0,0,0-.45-.15,3.26,3.26,0,0,0-.81,0,3.31,3.31,0,0,0-2.65,1.63,7.78,7.78,0,0,0-.49,4.57,7.59,7.59,0,0,0,.5,1.94,5.38,5.38,0,0,0,1.05,1.62,4.26,4.26,0,0,0,1.57,1,4.34,4.34,0,0,0,2.06.23,4.51,4.51,0,0,0,1.59-.45,4.28,4.28,0,0,0,1.1-.77Z"/><path class="cls-1" d="M175.37,263.08l-5.61,1.44-.17-.65a9.27,9.27,0,0,1,1.4-1l-1.55-6.08a7.51,7.51,0,0,0-1.39-3,2.17,2.17,0,0,0-2.37-.62,2.92,2.92,0,0,0-1.16.56,4.21,4.21,0,0,0-1.54,3.14l1.94,7.58c.29,0,.58,0,.85,0a3.41,3.41,0,0,1,.84.2l.17.65-5.58,1.43-.17-.65a7.59,7.59,0,0,1,1.55-1.06l-4.2-16.43-2,.3-.17-.68a13.34,13.34,0,0,1,1.61-1c.63-.32,1.23-.62,1.81-.88l.65-.16,2.34,9.16h0a5.85,5.85,0,0,1,1-2.48,3.87,3.87,0,0,1,2.26-1.49,7.07,7.07,0,0,1,1.92-.23,3,3,0,0,1,1.58.52,4.33,4.33,0,0,1,1.26,1.47,10.85,10.85,0,0,1,1,2.58l1.68,6.57c.31,0,.62,0,.94,0a3.25,3.25,0,0,1,.93.17Z"/><path class="cls-1" d="M187.36,243.79l-.6.31c-.41-.37-.87-.82-1.37-1.34s-1-1-1.37-1.52a7.09,7.09,0,0,1,1.41-2.17,8.6,8.6,0,0,1,2.31-1.72,6.24,6.24,0,0,1,2.22-.72,4.31,4.31,0,0,1,1.88.17,4.08,4.08,0,0,1,1.51.9,5,5,0,0,1,1.06,1.42,7.59,7.59,0,0,1,.8,3,18.15,18.15,0,0,1-.13,3.52,25.79,25.79,0,0,1-.7,3.52c-.31,1.14-.62,2.17-.92,3.06l-.51,1.45.05.09,1.25-.83,4.1-2.11-.21-3.27.59-.31.69,1.1.73,1.2c.24.41.47.8.68,1.18s.4.72.55,1l-9.83,5.08-.39-.76.58-2c.23-.78.45-1.63.66-2.54s.4-1.87.56-2.85a22.75,22.75,0,0,0,.29-2.91,16.23,16.23,0,0,0-.13-2.73,7,7,0,0,0-.68-2.3,5.38,5.38,0,0,0-.86-1.21,3.77,3.77,0,0,0-1.09-.81,2.87,2.87,0,0,0-1.25-.27,2.81,2.81,0,0,0-1.31.34,5,5,0,0,0-.85.53,9.53,9.53,0,0,0-.72.64Z"/><path class="cls-1" d="M202.54,240.16q-2.79-3.93-2.89-6.85a5.73,5.73,0,0,1,7.6-5.45c1.74.73,3.55,2.42,5.45,5.09s2.82,4.9,2.88,6.85a5.37,5.37,0,0,1-2.48,4.76,5.58,5.58,0,0,1-2.65,1.08,5,5,0,0,1-2.63-.47,9.45,9.45,0,0,1-2.63-1.86A23.29,23.29,0,0,1,202.54,240.16Zm2.12-1.47a28.11,28.11,0,0,0,2.18,2.75,12.17,12.17,0,0,0,2.06,1.86,4.46,4.46,0,0,0,1.89.8,2.25,2.25,0,0,0,1.65-.42,3,3,0,0,0,1.23-3.43,17.87,17.87,0,0,0-3-5.79,33.81,33.81,0,0,0-2.16-2.76,11,11,0,0,0-2-1.86,4.29,4.29,0,0,0-1.94-.75,2.61,2.61,0,0,0-1.81.53,2.86,2.86,0,0,0-1.1,3.32A18.58,18.58,0,0,0,204.66,238.69Z"/><path class="cls-1" d="M215.76,224.68l-.48.46c-.5-.24-1.07-.54-1.7-.91s-1.2-.72-1.74-1.08a7.18,7.18,0,0,1,.76-2.47,8.33,8.33,0,0,1,1.74-2.29,6.23,6.23,0,0,1,1.93-1.31,4.52,4.52,0,0,1,1.86-.36,4,4,0,0,1,1.69.44,5.34,5.34,0,0,1,1.42,1.08,7.59,7.59,0,0,1,1.62,2.71,19,19,0,0,1,.85,3.42,26.86,26.86,0,0,1,.3,3.57c0,1.19,0,2.25,0,3.2l-.1,1.53.07.08,1-1.15,3.35-3.16-1.11-3.09.49-.46,1,.86,1,1c.35.33.68.64,1,.95s.58.57.8.8l-8,7.61-.59-.62c0-.57,0-1.26,0-2.08s0-1.69-.07-2.62-.14-1.9-.25-2.9A24,24,0,0,0,222,225a16.28,16.28,0,0,0-.88-2.58,6.77,6.77,0,0,0-1.3-2,5.15,5.15,0,0,0-1.16-.94,3.7,3.7,0,0,0-1.27-.47,2.79,2.79,0,0,0-2.44.78,5.34,5.34,0,0,0-.66.74,6.84,6.84,0,0,0-.52.82Z"/><path class="cls-1" d="M227.87,212.4l-.41.52q-.79-.25-1.8-.66c-.68-.28-1.3-.55-1.88-.83a7.08,7.08,0,0,1,.41-2.55,8.52,8.52,0,0,1,1.4-2.52,6.39,6.39,0,0,1,1.73-1.57,4.54,4.54,0,0,1,1.79-.61,3.94,3.94,0,0,1,1.74.21,5.2,5.2,0,0,1,1.56.86,7.51,7.51,0,0,1,2,2.46A17.47,17.47,0,0,1,235.7,211a26.67,26.67,0,0,1,.8,3.49c.18,1.18.32,2.23.41,3.18l.12,1.53.08.06.81-1.27,2.87-3.6-1.52-2.9.41-.52,1.08.71c.38.27.77.53,1.15.81s.76.54,1.11.8.66.48.91.68L237,222.61l-.67-.54c-.08-.56-.17-1.25-.28-2s-.26-1.67-.44-2.59-.4-1.87-.65-2.84a23.07,23.07,0,0,0-.93-2.77,16.86,16.86,0,0,0-1.23-2.44,7.16,7.16,0,0,0-1.56-1.81,5.47,5.47,0,0,0-1.28-.76,3.59,3.59,0,0,0-1.33-.29,2.82,2.82,0,0,0-2.31,1.11,5.33,5.33,0,0,0-.55.82,8.38,8.38,0,0,0-.4.89Z"/></g></g></svg>